<svg width="141.000000" height="30.000000" viewBox="0 0 141 30" fill="none" xmlns="http://www.w3.org/2000/svg" xmlns:xlink="http://www.w3.org/1999/xlink">
	<desc>
			Created with Pixso.
	</desc>
	<defs/>
	<path d="M0 29.5669L0 0L19.5808 0L19.5808 5.15405L6.1438 5.15405L6.1438 12.1992L18.5735 12.1992L18.5735 17.3533L6.1438 17.3533L6.1438 24.4128L19.6377 24.4128L19.6377 29.5669L0 29.5669ZM44.5288 2.07898L50.5732 2.07898L50.5732 7.39172L54.6738 7.39172L54.6738 12.0116L50.5732 12.0116L50.5732 22.7527C50.5732 23.3206 50.6584 23.7632 50.8286 24.0808C50.999 24.3888 51.2354 24.6053 51.5381 24.7305C51.8503 24.8556 52.2097 24.9182 52.6165 24.9182C52.9004 24.9182 53.1841 24.8942 53.4678 24.8459C53.7517 24.7882 53.9692 24.745 54.1206 24.7161L55.0713 29.2926C54.7686 29.3888 54.3428 29.4995 53.7942 29.6246C53.2456 29.7594 52.5786 29.8412 51.7935 29.8701C50.3369 29.9279 49.0598 29.7305 47.9624 29.2782C46.8748 28.8258 46.0281 28.1232 45.4226 27.1704C44.8267 26.2322 44.5286 25.0514 44.5286 23.6281C44.5286 23.6058 44.5286 23.5835 44.5288 23.5612L44.5288 12.0116L41.5491 12.0116L41.5491 7.39172L44.5288 7.39172L44.5288 2.07898ZM58.6113 29.5669L58.6113 7.39172L64.4714 7.39172L64.4714 11.2609L64.6985 11.2609C65.0957 9.88452 65.7627 8.84509 66.6992 8.14246C67.6355 7.43018 68.7139 7.0741 69.9343 7.0741C70.2368 7.0741 70.5632 7.09338 70.9133 7.13184C71.2632 7.17041 71.5708 7.22327 71.8354 7.29065L71.8354 12.7478C71.5518 12.6613 71.1592 12.5842 70.658 12.5168C70.1565 12.4495 69.6978 12.4158 69.2815 12.4158C68.3923 12.4158 67.5977 12.613 66.8977 13.0077C66.2073 13.3927 65.6587 13.9316 65.252 14.6246Q65.2207 14.6792 65.1909 14.7345L65.1882 14.7395Q64.656 15.7385 64.656 17.0211L64.656 29.5669L58.6113 29.5669ZM80.5513 29.9856C79.1606 29.9856 77.9214 29.7401 76.8337 29.2493C75.7458 28.7488 74.885 28.0126 74.2512 27.0404C73.627 26.0587 73.3147 24.8364 73.3147 23.3734C73.3147 22.1415 73.5371 21.1068 73.9817 20.2695C74.4263 19.4321 75.0317 18.7584 75.7979 18.2483C76.564 17.7382 77.4343 17.3533 78.4087 17.0934C79.3923 16.8335 80.4233 16.6506 81.5017 16.5448C82.7693 16.41 83.791 16.2849 84.5667 16.1694C85.3423 16.0443 85.9053 15.8615 86.2551 15.6208Q86.4548 15.4834 86.5786 15.2959Q86.7803 14.9906 86.7803 14.5525L86.7803 14.4658C86.7803 13.5515 86.4963 12.8441 85.9287 12.3436C85.3706 11.8431 84.5762 11.5929 83.5449 11.5929C82.4573 11.5929 81.5918 11.8383 80.9485 12.3291C80.3052 12.8104 79.8796 13.4167 79.6714 14.1482L74.0811 13.6863C74.3647 12.3387 74.9229 11.1742 75.7554 10.1925Q75.9128 10.0048 76.082 9.82812L76.0825 9.82764Q77.2532 8.6051 78.9761 7.9115C80.3005 7.37244 81.833 7.10303 83.5735 7.10303C84.7842 7.10303 85.9429 7.24731 87.0498 7.53613C88.166 7.82483 89.1545 8.27234 90.0151 8.87878C90.8855 9.48511 91.5713 10.2646 92.0728 11.2175C92.574 12.1608 92.8247 13.2916 92.8247 14.6102L92.8247 29.5669L87.0923 29.5669L87.0923 26.4918L86.9221 26.4918C86.572 27.1848 86.1038 27.7959 85.5173 28.3253C84.9309 28.8451 84.2261 29.2542 83.4031 29.5525C82.5801 29.8412 81.6294 29.9856 80.5513 29.9856ZM103.559 16.7468L103.559 29.5669L97.5142 29.5669L97.5142 7.39172L103.275 7.39172L103.275 11.3042L103.53 11.3042C104.013 10.0144 104.822 8.99426 105.957 8.24353C107.092 7.48315 108.468 7.10303 110.086 7.10303C111.599 7.10303 112.919 7.43982 114.044 8.11353Q114.551 8.4165 114.989 8.79724Q116.014 9.68665 116.669 11.001C117.294 12.2426 117.606 13.7247 117.606 15.4475L117.606 29.5669L111.561 29.5669L111.561 16.5448C111.562 16.5265 111.562 16.5082 111.562 16.49C111.562 15.1592 111.221 14.1187 110.54 13.3687C109.849 12.5986 108.898 12.2136 107.688 12.2136C106.874 12.2136 106.155 12.3917 105.531 12.7478C104.916 13.104 104.434 13.6237 104.084 14.307C103.743 14.9807 103.568 15.7941 103.559 16.7468ZM140.503 13.7151L134.97 14.0616C134.875 13.5803 134.672 13.1472 134.36 12.7623C134.047 12.3677 133.636 12.0548 133.125 11.8239C132.624 11.5833 132.023 11.4629 131.323 11.4629Q129.918 11.4629 128.954 12.0693C128.31 12.4639 127.989 12.9933 127.989 13.6573C127.989 14.1868 128.197 14.6343 128.613 15C129.029 15.3657 129.743 15.6593 130.756 15.8806L134.7 16.6891C136.819 17.1318 138.399 17.8441 139.439 18.8258Q139.949 19.3071 140.293 19.8873Q141 21.0818 141 22.6949C141 24.1482 140.579 25.4235 139.737 26.5208C138.905 27.6179 137.76 28.4745 136.303 29.0905C134.856 29.6968 133.187 30 131.295 30C128.41 30 126.111 29.3888 124.399 28.1665C122.696 26.9346 121.698 25.2599 121.405 23.1425L127.35 22.8248C127.53 23.72 127.965 24.4033 128.656 24.8749C129.346 25.3369 130.23 25.5679 131.309 25.5679C132.368 25.5679 133.22 25.361 133.863 24.947C134.516 24.5236 134.847 23.9797 134.856 23.3157C134.847 22.7574 134.615 22.3003 134.161 21.9442C133.707 21.5785 133.007 21.2993 132.061 21.1068L128.287 20.3417C126.158 19.9086 124.574 19.1578 123.533 18.0895Q123.054 17.5934 122.724 17.0128Q121.987 15.7181 121.987 14.0039C121.987 12.5793 122.365 11.3523 123.122 10.3224C123.888 9.2926 124.962 8.49854 126.343 7.94031C127.733 7.38208 129.36 7.10303 131.224 7.10303C133.976 7.10303 136.143 7.69495 137.722 8.87878C139.312 10.0625 140.239 11.6747 140.503 13.7151ZM37.9309 14.9856L37.9309 19.8652L24.6782 19.8652L24.6782 14.9856L37.9309 14.9856ZM82.2822 25.7411C83.1714 25.7411 83.9565 25.563 84.6377 25.2069C85.3186 24.8412 85.853 24.3503 86.241 23.7344C86.6289 23.1184 86.8228 22.4207 86.8228 21.641L86.8228 19.2877C86.6335 19.4128 86.3733 19.5284 86.0422 19.6343C85.7207 19.7305 85.3564 19.8219 84.9497 19.9086C84.543 19.9856 84.1362 20.0577 83.7295 20.1251C83.3228 20.1829 82.9539 20.2358 82.6228 20.2839C81.9133 20.3898 81.2937 20.5582 80.7639 20.7892C80.2344 21.0203 79.8228 21.333 79.5295 21.7277C79.2363 22.1125 79.0896 22.5939 79.0896 23.1713C79.0896 24.0087 79.3877 24.6487 79.9836 25.0914C80.5891 25.5245 81.3552 25.7411 82.2822 25.7411Z" fill="#FFFFFF" fill-opacity="1.000000" fill-rule="evenodd"/>
	<path d="M0 30L0 0L19.9421 0L19.9421 5.22949L6.25732 5.22949L6.25732 12.3779L18.9163 12.3779L18.9163 17.6074L6.25732 17.6074L6.25732 24.7705L20 24.7705L20 30L0 30Z" fill="#B8FF20" fill-opacity="1.000000" fill-rule="nonzero"/>
</svg>
