<svg width="24.000000" height="24.000000" viewBox="0 0 24 24" fill="none" xmlns="http://www.w3.org/2000/svg" xmlns:xlink="http://www.w3.org/1999/xlink">
	<desc>
			Created with Pixso.
	</desc>
	<defs>
		<clipPath id="clip2_76">
			<rect id="Call" width="24.000000" height="24.000000" fill="white" fill-opacity="0"/>
		</clipPath>
	</defs>
	<rect id="Call" width="24.000000" height="24.000000" fill="#FFFFFF" fill-opacity="0"/>
	<g clip-path="url(#clip2_76)">
		<path id="Vector" d="M20.0098 15.38C18.7798 15.38 17.5898 15.1801 16.48 14.8199C16.1299 14.7 15.7402 14.79 15.4702 15.0601L13.8999 17.03C11.0698 15.6801 8.41992 13.13 7.00977 10.2L8.95996 8.54004C9.22998 8.26001 9.31006 7.87 9.2002 7.52002C8.83008 6.41003 8.64014 5.21997 8.64014 3.98999C8.64014 3.44995 8.18994 3 7.6499 3L4.18994 3C3.6499 3 3 3.23999 3 3.98999C3 13.28 10.73 21 20.0098 21C20.7202 21 21 20.37 21 19.8199L21 16.37C21 15.83 20.5498 15.38 20.0098 15.38Z" fill="#B8FF20" fill-opacity="1.000000" fill-rule="nonzero"/>
	</g>
</svg>
